Coordinates
version=1
nRows=24
nColumns=24
inDegrees=yes

Units are S.I. units (second, meters, Newtons, ...)
Angles are in degrees.

endheader
time	pelvis_tilt	pelvis_list	pelvis_rotation	pelvis_tx	pelvis_ty	pelvis_tz	hip_flexion_r	hip_adduction_r	hip_rotation_r	knee_angle_r	ankle_angle_r	subtalar_angle_r	mtp_angle_r	hip_flexion_l	hip_adduction_l	hip_rotation_l	knee_angle_l	ankle_angle_l	subtalar_angle_l	mtp_angle_l	lumbar_extension	lumbar_bending	lumbar_rotation
      0.56600000	     -3.59418188	      4.39776739	     14.08946665	     -0.81953998	      0.88019458	      0.27121477	     32.92716783	     -7.34748500	    -11.93046846	     -6.43793274	      4.91971176	     -1.33994955	      2.04175866	    -20.20505737	      3.97300835	     11.36425763	     -7.60943800	      8.11053687	     -3.89580607	     15.54151061	     -6.12094163	     -7.28547931	    -13.84785084
      0.57016667	     -3.58032763	      4.29606268	     14.11294192	     -0.81312414	      0.87958665	      0.27138303	     32.91549306	     -7.16574922	    -11.85078957	     -7.02380563	      4.72595635	     -1.63120109	      2.03213193	    -20.24053872	      3.78613517	     11.23750582	     -8.31792625	      7.86461247	     -3.77994646	     15.59305797	     -6.01203840	     -7.09492164	    -13.68634527
      0.57433333	     -3.52931304	      4.17809615	     14.13117240	     -0.80666276	      0.87907865	      0.27160526	     32.82730228	     -6.94296254	    -11.74090267	     -7.53856460	      4.37704947	     -2.07029753	      2.03898621	    -20.29548505	      3.56846806	     11.07330861	     -9.04965392	      7.62284751	     -3.60636482	     15.71752345	     -5.95298595	     -6.87712924	    -13.59791799
      0.57850000	     -3.45711090	      4.04701252	     14.13542044	     -0.80013841	      0.87861834	      0.27185522	     32.70744659	     -6.69173252	    -11.63484050	     -8.04141599	      3.98218313	     -2.55165506	      2.08377998	    -20.35734232	      3.33362283	     10.86207060	     -9.81193441	      7.37250560	     -3.40201234	     15.97495628	     -5.91228276	     -6.64639212	    -13.49329319
      0.58266667	     -3.43360005	      3.89927079	     14.13439562	     -0.79354455	      0.87814083	      0.27209301	     32.62201168	     -6.43077857	    -11.51980250	     -8.51393157	      3.51826161	     -2.93297959	      2.12709206	    -20.36022761	      3.10221951	     10.70083259	    -10.57235676	      6.97720038	     -3.30553668	     16.17786290	     -5.78620719	     -6.38055597	    -13.39878066
      0.58683333	     -3.37260038	      3.75694398	     14.12282188	     -0.78695903	      0.87771599	      0.27240583	     32.50337050	     -6.15457485	    -11.39037486	     -8.99887692	      2.99372653	     -3.46955884	      3.22777694	    -20.35144631	      2.85795344	     10.39269379	    -11.42756765	      6.64283613	     -3.05272552	     20.09529771	     -5.72222662	     -6.15306330	    -13.29963507
      0.59100000	     -3.30115542	      3.58115847	     14.09833127	     -0.78029622	      0.87735749	      0.27270558	     32.35130160	     -5.83376563	    -11.24625578	     -9.43113943	      2.37222562	     -4.02219304	      3.23599939	    -20.37611424	      2.59094183	     10.20449790	    -12.23330453	      6.23185296	     -2.99516196	     20.16747001	     -5.64905103	     -5.84997865	    -13.13614449
      0.59516667	     -3.27766175	      3.40555289	     14.06279833	     -0.77358806	      0.87697028	      0.27301129	     32.25626005	     -5.52193563	    -11.09965734	     -9.87963853	      1.74714497	     -4.43845933	      3.25885114	    -20.32249528	      2.34288635	      9.99272268	    -13.08090068	      5.71754966	     -2.90178547	     20.26013656	     -5.50935840	     -5.55419235	    -13.00876146
      0.59933333	     -3.20947566	      3.22228665	     14.01181570	     -0.76689439	      0.87664816	      0.27341124	     32.11938699	     -5.17044001	    -10.88434554	    -10.32394384	      1.02261599	     -5.17952572	      3.33439205	    -20.27326545	      2.07043308	      9.69904805	    -14.01196165	      5.33112772	     -2.68997063	     20.48627324	     -5.43734911	     -5.26625035	    -12.81198061
      0.60350000	     -3.17060137	      3.02314093	     13.95446097	     -0.76016328	      0.87632530	      0.27380340	     32.02058068	     -4.81362443	    -10.68379441	    -10.78233804	      0.29526023	     -5.77855511	      3.44860401	    -20.17099401	      1.79416257	      9.41116596	    -14.96799752	      4.83933719	     -2.50629739	     20.79963034	     -5.32327309	     -4.95086054	    -12.63130158
      0.60766667	     -3.14557122	      2.82482232	     13.88048120	     -0.75341282	      0.87600927	      0.27421144	     31.95566172	     -4.45653902	    -10.46804349	    -11.27863004	     -0.44108105	     -6.37275947	      3.58385881	    -20.03700827	      1.52968799	      9.12155956	    -15.94950660	      4.30636017	     -2.34629768	     21.16404384	     -5.18208430	     -4.63482303	    -12.43539634
      0.61183333	     -3.11280441	      2.61274792	     13.80462466	     -0.74664737	      0.87572787	      0.27462423	     31.90295671	     -4.09499008	    -10.29674265	    -11.82072368	     -1.14685227	     -6.84889075	      5.27981031	    -19.86898782	      1.24082009	      8.76801829	    -16.98767007	      3.68452652	     -2.14420330	     25.49257818	     -5.05352967	     -4.29811444	    -12.30123897
      0.61600000	     -3.11482686	      2.41519730	     13.70472758	     -0.73989271	      0.87543172	      0.27505660	     31.91324804	     -3.74378948	    -10.05487251	    -12.41938889	     -1.84313824	     -7.40554708	      5.27513993	    -19.67242750	      1.00186684	      8.52894823	    -18.01897478	      3.04559006	     -2.11771616	     25.55062585	     -4.88618298	     -3.98847402	    -12.05881397
      0.62016667	     -3.13135334	      2.20516794	     13.59217427	     -0.73311035	      0.87514773	      0.27549677	     31.95973519	     -3.38705839	     -9.82065326	    -13.06906617	     -2.43869935	     -7.79305504	      5.28436229	    -19.43128407	      0.75308783	      8.24787505	    -19.08385149	      2.31825082	     -2.01019747	     25.62894841	     -4.69585085	     -3.64565871	    -11.87449463
      0.62433333	     -3.13436365	      1.99976821	     13.47930794	     -0.72639614	      0.87488276	      0.27599581	     32.02227337	     -3.02771967	     -9.56407267	    -13.78153920	     -3.06362103	     -8.39438944	      5.31618800	    -19.13954420	      0.49788933	      7.91792657	    -20.27459754	      1.73447634	     -1.82209983	     25.80154973	     -4.54332381	     -3.34486554	    -11.61154684
      0.62850000	     -3.15320876	      1.78594080	     13.35472114	     -0.71966070	      0.87462856	      0.27649069	     32.12439511	     -2.66827548	     -9.31416595	    -14.55478586	     -3.56826142	     -8.82324092	      5.36263818	    -18.81088746	      0.24179933	      7.59078355	    -21.48264778	      1.04199847	     -1.64888894	     26.02780837	     -4.36705463	     -3.01419038	    -11.38318572
      0.63266667	     -3.17471633	      1.57689774	     13.21241232	     -0.71290807	      0.87440118	      0.27697017	     32.25852937	     -2.31984939	     -9.08457684	    -15.40818452	     -3.91742837	     -9.06473636	      5.38665280	    -18.47447165	      0.00198531	      7.28206854	    -22.68085889	      0.18606209	     -1.57557975	     26.15151318	     -4.18160031	     -2.65907110	    -11.22585475
      0.63683333	     -3.22975314	      1.38770162	     13.07612245	     -0.70625838	      0.87412032	      0.27751612	     32.46263403	     -1.99568725	     -8.82322231	    -16.33678148	     -4.30224899	     -9.49205851	      5.42567604	    -18.02259392	     -0.22473072	      6.92472636	    -24.02787882	     -0.49959246	     -1.36824888	     26.39849452	     -3.98465825	     -2.39129964	    -10.94399512
      0.64100000	     -3.27083227	      1.18517221	     12.92944681	     -0.69957883	      0.87389288	      0.27805092	     32.66094692	     -1.65749900	     -8.58092440	    -17.30132817	     -4.54197545	     -9.75928856	      5.46092042	    -17.57630313	     -0.46428255	      6.58833240	    -25.36727172	     -1.30262922	     -1.22287723	     26.65606198	     -3.79682284	     -2.07580431	    -10.71954482
      0.64516667	     -3.28331401	      0.97449209	     12.77701917	     -0.69288081	      0.87374505	      0.27857227	     32.83112707	     -1.30796130	     -8.35294815	    -18.29110284	     -4.63169177	     -9.91185430	      5.47681962	    -17.14558974	     -0.71783643	      6.25985067	    -26.70566162	     -2.24834904	     -1.15361418	     26.78396996	     -3.64187114	     -1.71354684	    -10.57213192
      0.64933333	     -3.36235289	      0.79623491	     12.63586663	     -0.68630525	      0.87348513	      0.27914367	     33.10554696	     -1.00865426	     -8.12668256	    -19.35549210	     -4.73754519	    -10.12205030	      5.48806443	    -16.56014165	     -0.94183743	      5.89298464	    -28.19444331	     -3.04202705	     -0.94987460	     27.01481102	     -3.43212452	     -1.46275541	    -10.31721980
      0.65350000	     -3.37065119	      0.58115880	     12.48526524	     -0.67966272	      0.87338434	      0.27969064	     33.27475510	     -0.65324905	     -7.91251794	    -20.37377104	     -4.68477288	    -10.22778294	      5.49153344	    -16.05964073	     -1.21532226	      5.55346412	    -29.62255744	     -4.03492489	     -0.87994717	     27.13230964	     -3.29432257	     -1.09330771	    -10.17014866
      0.65766667	     -3.43895509	      0.39908861	     12.34463058	     -0.67313962	      0.87318816	      0.28027407	     33.53104417	     -0.34982016	     -7.71833982	    -21.44543882	     -4.63552060	    -10.32399245	      5.47858023	    -15.41849890	     -1.45938567	      5.18514560	    -31.18001741	     -4.91858706	     -0.71464926	     27.30522236	     -3.10307904	     -0.83680465	     -9.94834323
      0.66183333	     -3.47094381	      0.19772176	     12.20305858	     -0.66660799	      0.87307997	      0.28084573	     33.72480964	     -0.01759931	     -7.54245727	    -22.47871730	     -4.48300114	    -10.37651647	      5.45207725	    -14.80257860	     -1.73524091	      4.82891757	    -32.72430935	     -5.88251381	     -0.61003376	     27.45234641	     -2.95204418	     -0.51919239	     -9.76474430
